<svg width="32" height="32" viewBox="0 0 32 32" fill="none" xmlns="http://www.w3.org/2000/svg">
<path d="M28.8 26.6667L28.1813 27.5349C28.3408 27.6485 28.5285 27.716 28.7238 27.7299C28.9191 27.7439 29.1145 27.7039 29.2885 27.6142C29.4626 27.5246 29.6086 27.3887 29.7106 27.2216C29.8125 27.0544 29.8665 26.8625 29.8667 26.6667H28.8ZM28.8 5.33333H29.8667C29.8665 5.13754 29.8125 4.94555 29.7106 4.77842C29.6086 4.61128 29.4626 4.47543 29.2885 4.38576C29.1145 4.29609 28.9191 4.25606 28.7238 4.27004C28.5285 4.28403 28.3408 4.3515 28.1813 4.46506L28.8 5.33333ZM13.8667 16L13.248 15.1317C13.1097 15.2304 12.997 15.3607 12.9193 15.5117C12.8415 15.6627 12.8009 15.8301 12.8009 16C12.8009 16.1699 12.8415 16.3373 12.9193 16.4883C12.997 16.6393 13.1097 16.7696 13.248 16.8683L13.8667 16ZM29.8667 26.6667L29.8667 5.33333H27.7333L27.7333 26.6667H29.8667ZM28.1813 4.46506L13.248 15.1317L14.4853 16.8683L29.4187 6.2016L28.1813 4.46506ZM13.248 16.8683L28.1813 27.5349L29.4187 25.7984L14.4853 15.1317L13.248 16.8683ZM4.26667 27.7333L4.26667 4.26666H2.13333L2.13333 27.7333H4.26667Z" fill="#2C4373"/>
</svg>
