<svg width="56" height="57" viewBox="0 0 56 57" fill="none" xmlns="http://www.w3.org/2000/svg">
<g clip-path="url(#clip0_8_21)">
<rect width="56" height="56" transform="translate(0 0.5)" fill="#06030D"/>
<path d="M2.184 0.502333C1.60496 0.502951 1.04981 0.733249 0.640361 1.14269C0.230915 1.55214 0.000617647 2.10729 0 2.68633V54.3277C0 55.5387 0.98 56.4977 2.184 56.4977H25.4427C25.4427 56.4977 24.2317 55.4103 24.017 55.191C23.7778 54.9468 23.5898 54.6572 23.464 54.3393C23.3403 54.0407 23.2447 53.4457 23.2027 53.1493C23.163 52.8507 23.0627 52.6313 22.9647 52.3747C22.8643 52.1133 22.4093 51.4857 22.2903 51.3247C22.1737 51.166 21.5157 50.4147 21.3803 50.2537C21.2403 50.095 21.2403 49.9153 21.301 49.7987C21.357 49.6797 21.259 49.577 21.1003 49.3973C20.9417 49.2223 20.209 48.429 19.8917 48.0533C19.5743 47.6753 19.733 47.5773 19.8147 47.5377C19.8917 47.4957 20.4447 47.855 20.727 47.995C20.9417 48.1 21.4853 48.387 21.7373 48.4547C21.8462 48.4858 21.9108 48.4788 21.931 48.4337C21.9613 48.387 22.5377 47.5843 22.7873 46.0467C23.065 43.3143 22.5073 41.6903 21.854 40.316C21.3889 39.3274 20.8311 38.3852 20.188 37.502C19.8497 37.0657 18.2863 35.717 18.025 35.5397C17.7683 35.36 14.7747 33.3977 14.4363 33.1177C14.1003 32.8423 14.4947 32.7303 14.623 32.7863C14.9567 32.9357 15.6217 33.2017 15.925 33.3417C16.2773 33.4933 18.0483 34.1117 18.3843 34.191C18.7203 34.2703 18.6783 34.261 18.6247 33.9133C18.585 33.6543 18.088 32.504 17.85 32.0887C17.6097 31.6687 16.5597 30.1823 15.8457 29.4917C15.1363 28.7987 14.2987 27.9027 13.9813 27.4103C13.664 26.9133 12.3573 24.2183 11.956 23.229C11.5909 22.3421 11.1805 21.4745 10.7263 20.6297C10.5887 20.394 10.4137 20.2703 10.4347 20.0697C10.451 19.876 11.025 20.3683 11.2863 20.6063C11.676 20.9633 12.1917 21.6447 12.8287 22.613C13.4633 23.5883 14.161 24.2183 14.2777 24.335C14.3943 24.4517 15.1877 25.252 15.3043 25.3243C15.3813 25.364 15.4117 25.3337 15.428 25.2683C15.4747 25.0723 15.428 24.58 15.351 24.195C15.253 23.6793 15.309 22.4497 15.1363 21.8337C14.9543 21.2247 14.8727 20.926 14.042 19.4537C13.2067 17.9883 12.3153 15.5313 11.585 11.644C11.12 9.13355 10.9921 6.57228 11.2047 4.028C11.2467 3.64767 11.403 3.71067 11.508 3.72933C11.6013 3.75267 11.6597 4.34767 11.6597 4.34767C11.6597 4.34767 11.6247 5.77567 13.3653 10.4353C15.1153 15.0927 17.1757 15.4123 17.3553 15.452C17.535 15.4917 17.612 15.4683 17.612 15.3703C17.612 15.2747 17.115 13.2703 17.2947 11.707C17.472 10.1367 17.85 9.502 18.0647 9.28033C18.2303 9.117 18.2257 9.24767 18.2257 9.73767C18.221 9.901 18.221 10.1063 18.2257 10.3537C18.249 11.3477 18.8813 12.6753 18.8813 12.6753C18.8813 12.6753 19.1567 13.842 19.635 11.126C20.3257 6.56667 19.677 4.13767 19.495 3.48667C19.32 2.82867 18.536 0.5 16.6997 0.5L2.184 0.502333ZM38.1803 0.502333C36.6637 0.502333 36.092 2.82867 35.9123 3.48667C35.735 4.13533 35.0793 6.56667 35.7747 11.126C36.2507 13.842 36.5283 12.6753 36.5283 12.6753C36.5283 12.6753 37.1653 11.3453 37.184 10.3537C37.1871 10.1079 37.1871 9.90256 37.184 9.73767C37.1793 9.24767 37.1793 9.117 37.3427 9.28267C37.5573 9.502 37.9377 10.1367 38.1127 11.707C38.2923 13.2703 37.8 15.2747 37.8 15.3703C37.8 15.466 37.8747 15.487 38.0567 15.452C38.2363 15.4123 40.2967 15.095 42.0443 10.4353C43.785 5.77567 43.7453 4.34533 43.7453 4.34533C43.7453 4.34533 43.8083 3.75267 43.904 3.72933C44.002 3.71067 44.163 3.64767 44.2027 4.028C44.4203 6.57192 44.2948 9.13356 43.8293 11.644C43.092 15.5313 42.2007 17.9907 41.3677 19.4537C40.537 20.926 40.453 21.2247 40.2733 21.8337C40.096 22.4497 40.1567 23.677 40.0587 24.195C39.984 24.58 39.935 25.0723 39.984 25.2683C39.998 25.3337 40.0307 25.364 40.1007 25.3243C40.2243 25.2543 41.0107 24.4517 41.1273 24.335C41.2487 24.2183 41.944 23.5883 42.574 22.613C43.211 21.6447 43.729 20.9633 44.1233 20.6063C44.387 20.3683 44.954 19.876 44.975 20.0697C44.996 20.2703 44.821 20.394 44.6833 20.6297C44.5433 20.863 43.8457 22.235 43.4467 23.229C43.0523 24.2183 41.7433 26.9133 41.426 27.4103C41.111 27.9003 40.2733 28.7987 39.564 29.4917C38.85 30.1823 37.8 31.6687 37.5573 32.0887C37.324 32.504 36.827 33.652 36.785 33.9133C36.7313 34.2633 36.687 34.268 37.0253 34.191C37.359 34.114 39.1253 33.4933 39.48 33.3417C39.788 33.2017 40.453 32.9357 40.7867 32.7863C40.915 32.7303 41.3117 32.8423 40.9733 33.1177C40.6327 33.3977 37.6413 35.3577 37.38 35.5397C37.1233 35.717 35.5553 37.0657 35.2217 37.4997C34.5735 38.3803 34.0153 39.3238 33.5557 40.316C32.9023 41.6903 32.3447 43.3143 32.6223 46.0467C32.8743 47.5843 33.4483 48.3893 33.4717 48.4337C33.5043 48.4803 33.5603 48.485 33.67 48.4547C33.9267 48.387 34.4633 48.1 34.6827 47.995C34.9603 47.855 35.518 47.4957 35.5927 47.5377C35.6767 47.5773 35.8307 47.6777 35.518 48.0533C35.2007 48.429 34.468 49.2223 34.3093 49.3973C34.1507 49.577 34.048 49.6797 34.1087 49.7987C34.1411 49.8742 34.1506 49.9575 34.1361 50.0384C34.1215 50.1193 34.0836 50.1941 34.027 50.2537C33.887 50.4123 33.2383 51.1637 33.1147 51.327C32.998 51.4833 32.5407 52.1133 32.4427 52.3747C32.3447 52.6313 32.2443 52.8507 32.2023 53.1493C32.1603 53.5541 32.0742 53.9532 31.9457 54.3393C31.8145 54.6537 31.6271 54.9416 31.3927 55.1887C31.171 55.4103 29.8853 56.4953 29.8853 56.4953H53.816C54.398 56.4898 54.9541 56.2544 55.3633 55.8405C55.7724 55.4265 56.0013 54.8677 56 54.2857V2.68633C56 2.10689 55.77 1.55114 55.3605 1.14119C54.9509 0.731237 54.3954 0.500618 53.816 0.5L38.1803 0.502333ZM20.8437 27.31C20.7945 27.3068 20.7461 27.3231 20.7089 27.3555C20.6718 27.3878 20.6489 27.4335 20.6453 27.4827C20.6103 28.038 20.5567 28.4673 20.5217 28.9807C20.482 29.564 20.405 30.2197 20.6687 30.81C20.9323 31.3863 21.5227 32.3523 21.7187 32.6347C21.9287 32.9147 22.7197 34.044 22.9157 34.3473C23.1163 34.6507 23.632 35.591 23.7207 35.7567C23.814 35.9153 23.7557 35.9153 23.884 35.9153C23.961 35.9153 23.9773 35.5047 23.9773 35.157C23.9773 34.961 23.9703 34.7883 23.9703 34.7207C23.9703 33.568 24.0123 32.4807 23.6273 31.3793C23.5321 31.0921 23.3945 30.8208 23.219 30.5743C22.932 30.18 22.624 29.802 22.3253 29.4217C22.2087 29.2677 22.092 29.109 21.952 28.9737C21.742 28.7613 21.189 28.0893 21.0607 27.7977C20.9673 27.5713 20.9323 27.3357 20.8647 27.3147L20.8437 27.31ZM34.6453 27.31L34.622 27.3147C34.552 27.3357 34.5193 27.5713 34.4213 27.7977C34.2977 28.0893 33.7447 28.7613 33.5277 28.9737C33.39 29.109 33.278 29.2677 33.1613 29.4217C32.858 29.802 32.5523 30.18 32.27 30.5743C32.0937 30.8207 31.9553 31.092 31.8593 31.3793C31.4743 32.4807 31.5163 33.568 31.5163 34.7207C31.5163 34.9003 31.479 35.9153 31.6027 35.9153C31.731 35.9153 31.6727 35.9153 31.766 35.7567C31.8523 35.5933 32.3727 34.6483 32.5663 34.3473C32.76 34.044 33.558 32.917 33.7657 32.6347C34.1545 32.0497 34.5053 31.4402 34.8157 30.81C34.9673 30.4763 35.007 30.124 35.007 29.7763C35.005 29.5114 34.9918 29.2468 34.9673 28.983C34.923 28.4697 34.8787 28.038 34.8413 27.4827C34.8343 27.345 34.7107 27.3053 34.6453 27.31ZM24.9667 47.1527C24.9542 47.1496 24.9496 47.1721 24.9527 47.2203C24.9527 47.295 24.906 47.5937 24.9293 47.778C24.941 47.9693 24.969 48.3893 24.9993 48.5947C25.0133 48.7183 25.0087 48.94 25.004 49.171V49.619C25.0133 49.955 24.969 50.5803 24.6843 51.089C24.6843 51.089 24.605 51.1707 24.605 51.2313C24.605 51.3013 24.661 51.3293 24.7217 51.4483C24.829 51.6513 25.1743 52.083 25.3027 52.2183C25.424 52.3513 25.6643 52.6407 25.9373 52.4213C26.04 52.335 26.0703 52.1997 26.0703 52.0223C26.0703 51.7423 25.9817 51.3503 25.9373 50.8697C25.9257 50.788 25.711 49.92 25.6293 49.5467C25.5733 49.269 25.3937 48.464 25.3377 48.198C25.3027 48.0417 25.158 47.5587 25.1323 47.4653C25.109 47.379 25.06 47.1853 25.004 47.162L24.9667 47.1527ZM30.4383 47.1527C30.429 47.1527 30.4142 47.1566 30.394 47.1643C30.345 47.183 30.3007 47.379 30.2727 47.4677C30.2493 47.5587 30.1047 48.0417 30.0673 48.198C30.0067 48.464 29.834 49.2713 29.771 49.5467C29.694 49.92 29.4793 50.788 29.4677 50.8697C29.393 51.6513 29.2017 52.1973 29.4677 52.4213C29.7337 52.6407 29.9763 52.3513 30.1047 52.216C30.2283 52.083 30.5737 51.6513 30.6833 51.446C30.744 51.3293 30.8 51.299 30.8 51.2313C30.8 51.1707 30.7183 51.0913 30.7183 51.0913C30.488 50.6357 30.3765 50.1293 30.394 49.619C30.401 49.486 30.394 49.332 30.394 49.1757C30.3898 48.9811 30.3937 48.7865 30.4057 48.5923C30.4313 48.3893 30.457 47.967 30.4803 47.778C30.499 47.5913 30.4523 47.295 30.4523 47.218C30.4539 47.1713 30.4492 47.1496 30.4383 47.1527Z" fill="#2C4373"/>
</g>
<defs>
<clipPath id="clip0_8_21">
<rect width="56" height="56" fill="white" transform="translate(0 0.5)"/>
</clipPath>
</defs>
</svg>
