<svg width="190" height="32" viewBox="0 0 190 32" fill="none" xmlns="http://www.w3.org/2000/svg">
<path d="M28.8 26.6667L28.1813 27.5349C28.3408 27.6485 28.5285 27.716 28.7238 27.73C28.9191 27.7439 29.1145 27.7039 29.2885 27.6142C29.4626 27.5246 29.6086 27.3887 29.7106 27.2216C29.8125 27.0544 29.8665 26.8625 29.8667 26.6667H28.8ZM28.8 5.33334H29.8667C29.8665 5.13754 29.8125 4.94556 29.7106 4.77842C29.6086 4.61128 29.4626 4.47544 29.2885 4.38577C29.1145 4.2961 28.9191 4.25607 28.7238 4.27005C28.5285 4.28404 28.3408 4.35151 28.1813 4.46507L28.8 5.33334ZM13.8667 16L13.248 15.1317C13.1097 15.2304 12.997 15.3607 12.9193 15.5117C12.8415 15.6627 12.8009 15.8301 12.8009 16C12.8009 16.1699 12.8415 16.3373 12.9193 16.4883C12.997 16.6393 13.1097 16.7696 13.248 16.8683L13.8667 16ZM29.8667 26.6667L29.8667 5.33334H27.7333L27.7333 26.6667H29.8667ZM28.1813 4.46507L13.248 15.1317L14.4853 16.8683L29.4187 6.2016L28.1813 4.46507ZM13.248 16.8683L28.1813 27.5349L29.4187 25.7984L14.4853 15.1317L13.248 16.8683ZM4.26667 27.7333L4.26667 4.26667H2.13333L2.13333 27.7333H4.26667Z" fill="#2C4373"/>
<path d="M85.6667 4L107 16L85.6667 28V4Z" stroke="#2C4373" stroke-width="1.5" stroke-linejoin="round"/>
<path d="M161.2 5.33334L161.819 4.46507C161.659 4.35151 161.471 4.28404 161.276 4.27005C161.081 4.25607 160.886 4.2961 160.711 4.38577C160.537 4.47544 160.391 4.61129 160.289 4.77842C160.187 4.94556 160.133 5.13754 160.133 5.33334H161.2ZM161.2 26.6667H160.133C160.133 26.8625 160.187 27.0544 160.289 27.2216C160.391 27.3887 160.537 27.5246 160.711 27.6142C160.886 27.7039 161.081 27.7439 161.276 27.73C161.471 27.716 161.659 27.6485 161.819 27.5349L161.2 26.6667ZM176.133 16L176.752 16.8683C176.89 16.7696 177.003 16.6393 177.081 16.4883C177.159 16.3373 177.199 16.1699 177.199 16C177.199 15.8301 177.159 15.6627 177.081 15.5117C177.003 15.3607 176.89 15.2304 176.752 15.1317L176.133 16ZM160.133 5.33334V26.6667H162.267V5.33334H160.133ZM161.819 27.5349L176.752 16.8683L175.515 15.1317L160.581 25.7984L161.819 27.5349ZM176.752 15.1317L161.819 4.46507L160.581 6.2016L175.515 16.8683L176.752 15.1317ZM185.733 4.26667V27.7333H187.867V4.26667H185.733Z" fill="#2C4373"/>
</svg>
