<svg width="32" height="32" viewBox="0 0 32 32" fill="none" xmlns="http://www.w3.org/2000/svg">
<path d="M3.2 5.33333L3.81867 4.46507C3.65917 4.35151 3.4715 4.28404 3.2762 4.27005C3.08091 4.25606 2.88554 4.2961 2.71148 4.38577C2.53743 4.47544 2.39142 4.61128 2.28944 4.77842C2.18746 4.94556 2.13345 5.13754 2.13333 5.33333H3.2ZM3.2 26.6667H2.13333C2.13345 26.8625 2.18746 27.0544 2.28944 27.2216C2.39142 27.3887 2.53743 27.5246 2.71148 27.6142C2.88554 27.7039 3.08091 27.7439 3.2762 27.73C3.4715 27.716 3.65917 27.6485 3.81867 27.5349L3.2 26.6667ZM18.1333 16L18.752 16.8683C18.8903 16.7696 19.003 16.6393 19.0807 16.4883C19.1585 16.3373 19.1991 16.1699 19.1991 16C19.1991 15.8301 19.1585 15.6627 19.0807 15.5117C19.003 15.3607 18.8903 15.2304 18.752 15.1317L18.1333 16ZM2.13333 5.33333V26.6667H4.26667V5.33333H2.13333ZM3.81867 27.5349L18.752 16.8683L17.5147 15.1317L2.58133 25.7984L3.81867 27.5349ZM18.752 15.1317L3.81867 4.46507L2.58133 6.2016L17.5147 16.8683L18.752 15.1317ZM27.7333 4.26667V27.7333H29.8667V4.26667H27.7333Z" fill="#2C4373"/>
</svg>
